<?xml version="1.0" encoding="UTF-8"?>
<svg xmlns="http://www.w3.org/2000/svg" id="Layer_1" data-name="Layer 1" viewBox="0 0 512 512" width="512" height="512" fill="#ffffff">
  <path d="M455.041,283.285a20.07,20.07,0,0,0-13.036,1.681l22.019,33.513a20.206,20.206,0,0,0-8.983-35.194Z"/>
  <path
    d="M108.2,372.717a29.722,29.722,0,1,0,29.722,29.721A29.755,29.755,0,0,0,108.2,372.717Zm17.019,24.935-17.571,16.8a5,5,0,0,1-6.991-.078L91.1,404.818a5,5,0,0,1,7.07-7.071l6.1,6.1,14.038-13.42a5,5,0,1,1,6.91,7.227Z"/>
  <path
    d="M108.2,272.717a29.722,29.722,0,1,0,29.722,29.721A29.755,29.755,0,0,0,108.2,272.717Zm17.019,24.935-17.571,16.8a5,5,0,0,1-6.991-.078L91.1,304.818a5,5,0,0,1,7.07-7.071l6.1,6.1,14.038-13.42a5,5,0,1,1,6.91,7.227Z"/>
  <path d="M291.661,116.607A11.611,11.611,0,1,0,280.051,105,11.624,11.624,0,0,0,291.661,116.607Z"/>
  <path d="M104.09,116.607A11.611,11.611,0,1,0,92.479,105,11.624,11.624,0,0,0,104.09,116.607Z"/>
  <path d="M166.613,116.607A11.611,11.611,0,1,0,155,105,11.624,11.624,0,0,0,166.613,116.607Z"/>
  <path d="M229.138,116.607A11.611,11.611,0,1,0,217.527,105,11.624,11.624,0,0,0,229.138,116.607Z"/>
  <path
    d="M108.2,172.717a29.722,29.722,0,1,0,29.722,29.721A29.755,29.755,0,0,0,108.2,172.717Zm17.019,24.935-17.571,16.8a5,5,0,0,1-6.991-.078L91.1,204.818a5,5,0,0,1,7.07-7.071l6.1,6.1,14.038-13.42a5,5,0,1,1,6.91,7.227Z"/>
  <rect x="283.746" y="360.323" width="182.838" height="15.218"
        transform="matrix(0.836, -0.549, 0.549, 0.836, -140.416, 266.45)"/>
  <polygon points="259.209 427.502 292.383 426.633 274.264 399.057 259.209 427.502"/>
  <rect x="269.899" y="339.248" width="182.838" height="15.218"
        transform="translate(-131.095 255.262) rotate(-33.293)"/>
  <path
    d="M361,453.438v-55.03l-56.679,37.167c-.014.009-.111.015-.126.024a4.82,4.82,0,0,1-.492.274c-.044.022-.086.05-.131.071a5.174,5.174,0,0,1-.639.241c-.1.03-.2.047-.3.071-.122.028-.244.062-.369.081s-.231.026-.346.036c-.1.008-.19.03-.288.033l-50.707,1.34c-.044,0-.088.026-.131.026a4.958,4.958,0,0,1-4.249-2.318,4.657,4.657,0,0,1-.17-4.787L254.28,416H178.2a5,5,0,0,1,0-10h80a4.951,4.951,0,0,1,1.278.185L264.865,396H178.2a5,5,0,0,1,0-10h92.366c.137,0,.324-.5.473-.6.022-.015.079-.269.1-.283L361,326.107V92.438C361,78.653,349.621,68,335.836,68H303V86.61a21.612,21.612,0,1,1-22-.4V68H240V86.327a21.607,21.607,0,1,1-22,.158V68H178V86.641a21.61,21.61,0,1,1-22-.457V68H115V86.354a21.609,21.609,0,1,1-22,.1V68H65.836C52.051,68,41,78.653,41,92.438v361C41,467.223,52.051,479,65.836,479h270C349.621,479,361,467.223,361,453.438ZM178.2,186h150a5,5,0,0,1,0,10h-150a5,5,0,0,1,0-10Zm0,20h80a5,5,0,0,1,0,10h-80a5,5,0,0,1,0-10Zm0,80h150a5,5,0,0,1,0,10h-150a5,5,0,0,1,0-10Zm0,20h80a5,5,0,0,1,0,10h-80a5,5,0,0,1,0-10ZM64,188.2a5,5,0,0,1-10,0v-58a5,5,0,0,1,10,0Zm0-77a5,5,0,1,1-10,0v-6.295a5,5,0,1,1,10,0ZM108.2,442.16a39.722,39.722,0,1,1,39.722-39.722A39.766,39.766,0,0,1,108.2,442.16Zm0-100a39.722,39.722,0,1,1,39.722-39.722A39.766,39.766,0,0,1,108.2,342.16Zm0-100a39.722,39.722,0,1,1,39.722-39.722A39.766,39.766,0,0,1,108.2,242.16Z"/>
  <path d="M109,38.187a5,5,0,0,0-10,0V84h10Z"/>
  <path d="M172,38.187a5,5,0,0,0-10,0V84h10Z"/>
  <path d="M234,38.187a5,5,0,0,0-10,0V84h10Z"/>
  <path d="M297,38.187a5,5,0,0,0-10,0V84h10Z"/>
</svg>
