<svg id="Layer_1" height="512" viewBox="0 0 512 512" width="512" xmlns="http://www.w3.org/2000/svg" data-name="Layer 1" fill="#ffffff">
  <path
    d="m213.166 391h-25.48a42.089 42.089 0 0 1 -83.615 0h-25.039c-30.113 0-54.032 24.547-54.032 54.662v51.338h243v-51.338a54.905 54.905 0 0 0 -54.834-54.662z"/>
  <path
    d="m212 290.564v-29.714l.29-7.087c.22-15.058-6.657-28.865-18.789-36.933a38.151 38.151 0 0 0 -11.762-5.39c-33.221 57.034-87.739 68.867-101.739 71.052v8.981a65.859 65.859 0 0 0 65.805 66.409h.456c36.339-.27 65.739-30.468 65.739-67.318z"/>
  <path
    d="m116 363.923v22.27a30 30 0 1 0 60 0v-22.421a76.594 76.594 0 0 1 -29.508 6.108h-.466a76.491 76.491 0 0 1 -30.026-5.957z"/>
  <path
    d="m81.015 335.176a77.586 77.586 0 0 1 -13.015-43.703v-12.716a7.565 7.565 0 0 1 7.282-7.787c4.191-.4 63.99-7.2 97.822-69.121a5.926 5.926 0 0 1 6.031-3.067 49.467 49.467 0 0 1 20.77 8.056 55.147 55.147 0 0 1 24.348 47.1l-.253 7v29.626a79.273 79.273 0 0 1 -9.433 37.873c9.665-11.887 17.323-24.052 22.469-36.337 9.942-23.732 10.416-49.133 1.38-71.523-1.73-4.286-11.277-25.451-29.215-21.2a6 6 0 0 1 -7.083-3.941l-.433-1.291c-6.647-15.562-17.587-27.564-31.647-34.719-14.924-7.594-31.837-9-48.909-4.068-28.238 8.16-51.483 26.985-63.775 51.646a97.482 97.482 0 0 0 -9.874 47.42 128.051 128.051 0 0 0 33.535 80.752z"/>
  <path d="m393.446 422h-65.396l-.019 26h65.434z"/>
  <path d="m382.227 410h11.211l-.183-256h-11.295z"/>
  <path d="m339.537 154h-11.296l-.182 256h11.211z"/>
  <path d="m351.27 410h18.957l-.267-256h-18.423z"/>
  <path d="m360.748 104.062-26.894 37.938h53.789z"/>
  <path
    d="m328.022 460-.006 9.553a32.919 32.919 0 0 0 9.578 23.336 32.732 32.732 0 0 0 46.308 0 32.923 32.923 0 0 0 9.578-23.336l-.006-9.553z"/>
  <path d="m361 52.492a6 6 0 0 0 6-6v-30.977a6 6 0 1 0 -12 0v30.977a6 6 0 0 0 6 6z"/>
  <path d="m272.542 125h-32.242a6 6 0 0 0 0 12h32.239a6 6 0 0 0 0-12z"/>
  <path d="m481.193 125h-32.239a6 6 0 1 0 0 12h32.239a6 6 0 0 0 0-12z"/>
  <path d="m279.77 45.116a6 6 0 0 0 -8.266 8.7l22.954 21.808a6 6 0 1 0 8.266-8.7z"/>
  <path
    d="m450.209 45.333a6 6 0 0 0 -8.482-.217l-22.955 21.808a6 6 0 0 0 8.266 8.7l22.954-21.808a6 6 0 0 0 .217-8.483z"/>
</svg>
