<svg id="Layer_1" enable-background="new 0 0 511.98 511.98" height="24" viewBox="0 0 511.98 511.98" width="24" xmlns="http://www.w3.org/2000/svg"><path d="m511.858 334.014-32-256c-1.504-11.948-15.165-18.002-25.01-11.16-86.89 60.42-200.79 82.58-281.04 90.53-87.83 8.7-155.7 2.74-156.38 2.68-9.778-.892-18.658 7.287-17.288 18.253l31.957 255.657c1 8.01 7.81 14.02 15.88 14.02 85.98 0 165.022-6.707 235.964-19.98 10.547-1.973 19.552-10.713 20.131-24.498 2.359-55.75 49.036-100.008 104.834-99.518 34.356.302 64.777 17.339 83.513 43.339 6.739 9.351 21.029-.47 19.439-13.323zm-226.804 26.74 3.351 19.004c1.534 8.702-4.276 17.001-12.979 18.535-8.663 1.531-16.994-4.242-18.535-12.979-3.276-18.581-2.739-16.672-3.41-16.672-10.961 0-21.042-2.819-28.708-8.187-7.239-5.069-8.998-15.045-3.929-22.284 5.069-7.238 15.045-8.998 22.284-3.929 7.214 5.054 26.891 1.783 31.931-6.182 5.247-8.262.181-19.406-9.562-21.567l-25.962-5.756c-40.666-9.015-51.398-64.215-12.632-85.503l-3.351-19.003c-1.535-8.702 4.276-17 12.979-18.535 8.706-1.531 17.001 4.277 18.535 12.978l2.941 16.676c11.143-.082 21.403 2.739 29.178 8.184 7.239 5.068 8.998 15.045 3.93 22.284s-15.047 8.998-22.283 3.929c-7.224-5.058-26.467-1.652-31.515 5.557-6.031 8.618-.601 20.031 9.145 22.192l25.962 5.756c40.846 9.054 51.205 64.314 12.63 85.502z"/><path d="m407.978 479.995c-39.701 0-72-32.299-72-72s32.299-72 72-72 72 32.299 72 72-32.299 72-72 72z"/><path d="m205.934 50.388c-5.224 3.16-5.041 10.811.289 13.79 17.988 10.052 33.316 24.323 44.641 41.463 2.749 4.161 7.74 6.241 12.611 5.17 30.956-6.81 63.533-15.992 95.98-28.363 5.381-2.052 6.904-9.017 2.825-13.082-42.125-41.984-106.672-49.025-156.346-18.978z"/><path d="m67.881 117.541c-4.015 5.217-.22 12.785 6.363 12.808 43.454.155 88.654-2.826 132.455-9.213 6.584-.96 9.18-9.021 4.427-13.678-41.295-40.467-108.191-35.468-143.245 10.083z"/></svg>