<svg id="Layer_1" enable-background="new 0 0 512 512" height="24" viewBox="0 0 512 512" width="24" xmlns="http://www.w3.org/2000/svg"><g><path d="m433.042 302.999c-8.271 0-15 6.729-15 15s6.729 15 15 15 15-6.729 15-15-6.728-15-15-15z"/><path d="m341.042 209c8.271 0 15.001-6.729 15.001-15s-6.729-15-15.001-15-15 6.729-15 15 6.729 15 15 15z"/><path d="m497 119c-8.271 0-15-6.729-15-15 0-8.284-6.716-15-15-15h-422c-8.284 0-15 6.716-15 15 0 8.271-6.729 15-15 15-8.284 0-15 6.716-15 15v244c0 8.284 6.716 15 15 15 8.271 0 15 6.729 15 15 0 8.284 6.716 15 15 15h422c8.284 0 15-6.716 15-15 0-8.271 6.729-15 15-15 8.284 0 15-6.716 15-15v-244c0-8.285-6.716-15-15-15zm-155.958 30c24.813 0 45.001 20.187 45.001 45s-20.188 45-45.001 45-45-20.187-45-45 20.187-45 45-45zm-291.042 6h79c8.284 0 15 6.716 15 15s-6.716 15-15 15h-79c-8.284 0-15-6.716-15-15s6.716-15 15-15zm79 150h-79c-8.284 0-15-6.716-15-15s6.716-15 15-15h79c8.284 0 15 6.716 15 15s-6.716 15-15 15zm53-60h-132c-8.284 0-15-6.716-15-15s6.716-15 15-15h132c8.284 0 15 6.716 15 15s-6.716 15-15 15zm115.542 114.5c-3.839 0-7.678-1.464-10.606-4.394-5.858-5.858-5.858-15.355 0-21.213l163.5-163.5c5.857-5.858 15.355-5.858 21.213 0s5.858 15.355 0 21.213l-163.5 163.5c-2.929 2.929-6.768 4.394-10.607 4.394zm135.5 3.5c-24.813 0-45-20.187-45-45s20.187-45 45-45 45 20.187 45 45-20.186 45-45 45z"/></g></svg>